<svg height="36" viewBox="0 0 24 24" width="36" xmlns="http://www.w3.org/2000/svg" style="flex: 0 0 auto; line-height: 1;"><title>Luma</title><path d="M2 5.999L12.392 0v24L2 18V5.999z" fill="#000"/><path d="M12.392 24L2 18l10.392-6 10.393 6-10.393 6z" fill="url(#lobe-icons-luma-0-_r_s_)"/><path d="M12.392 24L2 18l10.392-6 10.393 6-10.393 6z" fill="url(#lobe-icons-luma-1-_r_s_)"/><path d="M2 5.999L12.392 0v24L2 18V5.999z" fill="url(#lobe-icons-luma-2-_r_s_)" style="mix-blend-mode: screen;"/><path d="M12.392 24L2 18l10.392-6 10.393 6-10.393 6z" fill="url(#lobe-icons-luma-3-_r_s_)" style="mix-blend-mode: overlay;"/><path d="M2 5.999L12.392 0v24L2 18V5.999z" fill="url(#lobe-icons-luma-4-_r_s_)" style="mix-blend-mode: overlay;"/><defs><linearGradient gradientUnits="userSpaceOnUse" id="lobe-icons-luma-0-_r_s_" x1="2" x2="22.785" y1="18" y2="18"><stop stop-color="#00A"/><stop offset="1" stop-color="#A78DFF"/></linearGradient><linearGradient gradientUnits="userSpaceOnUse" id="lobe-icons-luma-1-_r_s_" x1="2" x2="22.785" y1="18" y2="18"><stop stop-color="#00A"/><stop offset="1" stop-color="#A78DFF"/></linearGradient><linearGradient gradientUnits="userSpaceOnUse" id="lobe-icons-luma-2-_r_s_" x1="13.748" x2="4.672" y1="22.642" y2="3.745"><stop stop-color="#004EFF"/><stop offset="1" stop-color="#0FF"/></linearGradient><linearGradient gradientUnits="userSpaceOnUse" id="lobe-icons-luma-3-_r_s_" x1="2" x2="22.785" y1="18" y2="18"><stop stop-color="#00A"/><stop offset="1" stop-color="#A78DFF"/></linearGradient><linearGradient gradientUnits="userSpaceOnUse" id="lobe-icons-luma-4-_r_s_" x1="13.748" x2="4.672" y1="22.642" y2="3.745"><stop stop-color="#004EFF"/><stop offset="1" stop-color="#0FF"/></linearGradient></defs></svg>